<?xml version="1.0" encoding="UTF-8" standalone="no"?>
<svg
   id="Layer_1"
   data-name="Layer 1"
   viewBox="0 0 122.61 122.88"
   version="1.1"
   sodipodi:docname="update-icon-white.svg"
   inkscape:version="1.2.1 (9c6d41e410, 2022-07-14)"
   xmlns:inkscape="http://www.inkscape.org/namespaces/inkscape"
   xmlns:sodipodi="http://sodipodi.sourceforge.net/DTD/sodipodi-0.dtd"
   xmlns="http://www.w3.org/2000/svg"
   xmlns:svg="http://www.w3.org/2000/svg"
   xmlns:rdf="http://www.w3.org/1999/02/22-rdf-syntax-ns#"
   xmlns:cc="http://creativecommons.org/ns#"
   xmlns:dc="http://purl.org/dc/elements/1.1/">
  <defs
     id="defs18" />
  <sodipodi:namedview
     id="namedview16"
     pagecolor="#505050"
     bordercolor="#eeeeee"
     borderopacity="1"
     inkscape:showpageshadow="0"
     inkscape:pageopacity="0"
     inkscape:pagecheckerboard="0"
     inkscape:deskcolor="#505050"
     showgrid="false"
     inkscape:zoom="8.3577476"
     inkscape:cx="61.260524"
     inkscape:cy="61.499823"
     inkscape:window-width="3840"
     inkscape:window-height="2126"
     inkscape:window-x="3061"
     inkscape:window-y="-11"
     inkscape:window-maximized="1"
     inkscape:current-layer="Layer_1" />
  <title
     id="title11">update</title>
  <path
     d="M111.9,61.57a5.36,5.36,0,0,1,10.71,0A61.3,61.3,0,0,1,17.54,104.48v12.35a5.36,5.36,0,0,1-10.72,0V89.31A5.36,5.36,0,0,1,12.18,84H40a5.36,5.36,0,1,1,0,10.71H23a50.6,50.6,0,0,0,88.87-33.1ZM106.6,5.36a5.36,5.36,0,1,1,10.71,0V33.14A5.36,5.36,0,0,1,112,38.49H84.44a5.36,5.36,0,1,1,0-10.71H99A50.6,50.6,0,0,0,10.71,61.57,5.36,5.36,0,1,1,0,61.57,61.31,61.31,0,0,1,91.07,8,61.83,61.83,0,0,1,106.6,20.27V5.36Z"
     id="path13"
     style="fill:#ffffff" />
  <metadata
     id="metadata225">
    <rdf:RDF>
      <cc:Work
         rdf:about="">
        <dc:title>update</dc:title>
      </cc:Work>
    </rdf:RDF>
  </metadata>
</svg>
